<svg class="{{ .class }} " viewBox="{{ .viewBox }}" xmlns="http://www.w3.org/2000/svg">
    <path d="M126 111c0 8.286-6.714 15-15 15H33c-8.283 0-15-6.714-15-15V33c0-8.286 6.717-15 15-15h78c8.286 0 15 6.714 15 15v78Z" style="fill:#0288d1;" transform="matrix(1.06173 0 0 1.06173 -12.444 -12.444)"/>
    <path d="M36 57h15v51H36V57Zm7.455-6h-.084C38.895 51 36 47.664 36 43.497 36 39.24 38.985 36 43.542 36c4.563 0 7.374 3.24 7.458 7.497C51 47.661 48.105 51 43.455 51ZM108 108H93V80.703c0-6.594-3.675-11.094-9.576-11.094-4.503 0-6.939 3.036-8.121 5.97C74.871 76.629 75 79.533 75 81v27H60V57h15v7.848C77.163 61.5 80.55 57 89.214 57c10.734 0 18.783 6.75 18.783 21.822L108 108Z" style="fill:#fff;fill-rule:nonzero" transform="matrix(1.06173 0 0 1.06173 -12.444 -12.444)"/>
</svg>
