<svg class="{{ .class }} " viewBox="{{ .viewBox }}" xmlns="http://www.w3.org/2000/svg">
    <path d="M40 524c-22-26-2-54 127-177 102-97 128-117 153-117s50 19 143 108l112 107 3-145c2-127 1-146-15-157-22-16-454-18-484-3-17 10-19 22-19 115 0 87-3 105-15 105s-15-19-15-108c0-156-19-147 290-147 230 0 249 1 269 19s21 29 21 206c0 131-4 190-12 198-9 9-85 12-279 12-229 0-268-2-279-16Zm540-23c0-16-242-241-259-241-18 0-261 224-261 241 0 5 110 9 260 9 147 0 260-4 260-9Z" transform="matrix(.19762 0 0 -.19762 .783 127.724)"/>
</svg>
