<svg id="{{ .id }}" class="{{ .class }}" fill="{{ .fill }}" viewBox="{{ .viewBox }}" xmlns="http://www.w3.org/2000/svg">
    <title>Switch to light theme</title>
    <path d="M7.5 11.465a3.482 3.482.0 01-1.596-.662L4.11 12.596a.5.5.0 01-.707-.707l1.793-1.793A3.482 3.482.0 014.535 8.5H2a.5.5.0 010-1h2.535a3.482 3.482.0 01.662-1.596L3.404 4.11a.5.5.0 01.707-.707l1.793 1.793A3.482 3.482.0 017.5 4.535V2a.5.5.0 011 0v2.535a3.482 3.482.0 011.596.662l1.793-1.793a.5.5.0 01.707.707l-1.793 1.793c.343.458.577 1.003.662 1.596H14a.5.5.0 110 1h-2.535a3.482 3.482.0 01-.662 1.596l1.793 1.793a.5.5.0 01-.707.707l-1.793-1.793a3.482 3.482.0 01-1.596.662V14a.5.5.0 11-1 0v-2.535z">
    </path>
</svg>
